<?xml version="1.0" encoding="UTF-8"?>
<svg id="Layer_1" data-name="Layer 1" xmlns="http://www.w3.org/2000/svg" viewBox="0 0 48 48">
  <defs>
    <style>
      .cls-1 {
        fill: #525254;
      }

      .cls-2 {
        fill: #37373a;
      }

      .cls-3 {
        fill: #676569;
      }
    </style>
  </defs>
  <g>
    <rect class="cls-1" x=".5" y=".5" width="47" height="47" rx="8.69" ry="8.69"/>
    <path class="cls-3" d="M38.81,1c4.51,0,8.19,3.67,8.19,8.19v29.63c0,4.51-3.67,8.19-8.19,8.19H9.19c-4.51,0-8.19-3.67-8.19-8.19V9.19C1,4.67,4.67,1,9.19,1h29.63m0-1H9.19C4.11,0,0,4.11,0,9.19v29.63c0,5.07,4.11,9.19,9.19,9.19h29.63c5.07,0,9.19-4.11,9.19-9.19V9.19c0-5.07-4.11-9.19-9.19-9.19h0Z"/>
  </g>
  <path class="cls-2" d="M47,17.5v-3h-13.5V1h-3V14.5h-13V1h-3V14.5H1v3H14.5v13H1v3H14.5v13.5h3v-13.5h13v13.5h3v-13.5h13.5v-3h-13.5v-13h13.5Zm-16.5,13h-13v-13h13v13Z"/>
</svg>