<?xml version="1.0" encoding="UTF-8"?>
<svg id="Layer_1" data-name="Layer 1" xmlns="http://www.w3.org/2000/svg" viewBox="0 0 100 100">
  <defs>
    <style>
      .cls-1 {
        fill: #1793d1;
        fill-rule: evenodd;
      }
    </style>
  </defs>
  <path class="cls-1" d="M96,30.6c-2.4-6-6.1-11.3-10.7-15.9-4.6-4.5-10-8.2-15.9-10.7C63.2,1.3,56.7,0,50,0s-13.2,1.5-19.4,4c-6.1,2.5-11.3,6-15.9,10.7-4.5,4.6-8.2,10-10.7,15.9C1.3,36.8,0,43.3,0,50s1.5,13.2,4,19.4c2.5,6.1,6,11.3,10.7,15.9,4.6,4.7,10,8.2,15.9,10.7,6.2,2.7,12.7,4,19.4,4s13.2-1.3,19.4-4c6.1-2.4,11.3-6,15.9-10.7,4.7-4.6,8.2-10,10.7-15.9,2.7-6.2,4-12.7,4-19.4s-1.5-13.2-4-19.4Zm-13.7,19.4c0,8.7-3.3,16.7-9.5,22.9-6,6.1-14.1,9.4-22.8,9.4s-16.7-3.3-22.8-9.4c-6.1-6.1-9.5-14.2-9.5-22.9s3.3-16.6,9.4-22.8,14.2-9.5,22.9-9.5,16.8,3.3,22.9,9.4c6.1,6.2,9.4,14.2,9.4,22.9Z"/>
</svg>