<?xml version="1.0" encoding="UTF-8"?>
<svg id="Layer_2" data-name="Layer 2" xmlns="http://www.w3.org/2000/svg" viewBox="0 0 100 100">
  <defs>
    <style>
      .cls-1 {
        fill: #d2182b;
      }
    </style>
  </defs>
  <path class="cls-1" d="M67.3,50l29.1-29.1c4.8-4.8,4.8-12.5,0-17.3-4.8-4.8-12.5-4.8-17.3,0l-29.1,29.1L20.9,3.6C16.1-1.2,8.4-1.2,3.6,3.6-1.2,8.4-1.2,16.1,3.6,20.9l29.1,29.1L3.6,79.1c-4.8,4.8-4.8,12.5,0,17.3,4.8,4.8,12.5,4.8,17.3,0l29.1-29.1,29.1,29.1c4.8,4.8,12.5,4.8,17.3,0,4.8-4.8,4.8-12.5,0-17.3l-29.1-29.1Z"/>
</svg>